<svg width="18" height="18" viewBox="0 0 18 18" fill="none" xmlns="http://www.w3.org/2000/svg">
<path fill-rule="evenodd" clip-rule="evenodd" d="M4.13824 0.666748H13.8605V5.52786H12.4716V2.05564H5.52713V7.61119H4.13824V0.666748Z" fill="#064D69"/>
<path fill-rule="evenodd" clip-rule="evenodd" d="M6.91602 15.9445H11.0827V17.3334H6.91602V15.9445Z" fill="#064D69"/>
<path fill-rule="evenodd" clip-rule="evenodd" d="M0.666016 8.30564H8.3049V17.3334H0.666016V8.30564ZM2.0549 9.69453V15.9445H6.91602V9.69453H2.0549Z" fill="#064D69"/>
<path fill-rule="evenodd" clip-rule="evenodd" d="M9.69379 6.2223H17.3327V17.3334H9.69379V6.2223ZM11.0827 7.61119V15.9445H15.9438V7.61119H11.0827Z" fill="#064D69"/>
<path fill-rule="evenodd" clip-rule="evenodd" d="M12.4716 9.00008H14.5549V10.389H12.4716V9.00008Z" fill="#064D69"/>
<path fill-rule="evenodd" clip-rule="evenodd" d="M12.4716 11.0834H14.5549V12.4723H12.4716V11.0834Z" fill="#064D69"/>
<path fill-rule="evenodd" clip-rule="evenodd" d="M12.4716 13.1667H14.5549V14.5556H12.4716V13.1667Z" fill="#064D69"/>
<path fill-rule="evenodd" clip-rule="evenodd" d="M3.44379 13.1667H5.52713V14.5556H3.44379V13.1667Z" fill="#064D69"/>
<path fill-rule="evenodd" clip-rule="evenodd" d="M3.44379 11.0834H5.52713V12.4723H3.44379V11.0834Z" fill="#064D69"/>
</svg>
