<svg width="15" height="10" viewBox="0 0 15 10" fill="none" xmlns="http://www.w3.org/2000/svg">
<path d="M12.1781 3.72969C11.4625 1.84219 9.63906 0.5 7.50313 0.5C5.36719 0.5 3.54375 1.84063 2.82812 3.72813C1.48906 4.07969 0.5 5.3 0.5 6.75C0.5 8.47656 1.89844 9.875 3.62344 9.875H4.25C4.31875 9.875 4.375 9.81875 4.375 9.75V8.8125C4.375 8.74375 4.31875 8.6875 4.25 8.6875H3.62344C3.09687 8.6875 2.60156 8.47812 2.23281 8.09844C1.86562 7.72031 1.67031 7.21094 1.6875 6.68281C1.70156 6.27031 1.84219 5.88281 2.09687 5.55625C2.35781 5.22344 2.72344 4.98125 3.12969 4.87344L3.72188 4.71875L3.93906 4.14687C4.07344 3.79062 4.26094 3.45781 4.49687 3.15625C4.7298 2.85736 5.00571 2.59461 5.31563 2.37656C5.95781 1.925 6.71406 1.68594 7.50313 1.68594C8.29219 1.68594 9.04844 1.925 9.69063 2.37656C10.0016 2.59531 10.2766 2.85781 10.5094 3.15625C10.7453 3.45781 10.9328 3.79219 11.0672 4.14687L11.2828 4.71719L11.8734 4.87344C12.7203 5.10156 13.3125 5.87187 13.3125 6.75C13.3125 7.26719 13.1109 7.75469 12.7453 8.12031C12.566 8.30067 12.3527 8.44366 12.1178 8.54102C11.8828 8.63838 11.6309 8.68817 11.3766 8.6875H10.75C10.6812 8.6875 10.625 8.74375 10.625 8.8125V9.75C10.625 9.81875 10.6812 9.875 10.75 9.875H11.3766C13.1016 9.875 14.5 8.47656 14.5 6.75C14.5 5.30156 13.5141 4.08281 12.1781 3.72969Z" fill="white"/>
</svg>
