<svg width="14" height="12" viewBox="0 0 14 12" fill="none" xmlns="http://www.w3.org/2000/svg">
<path fill-rule="evenodd" clip-rule="evenodd" d="M11.4056 3.56635L12.9745 4.45043C13.469 4.72858 13.7708 5.23015 13.7708 5.77043V8.34783H9.69695V7.30435H12.6597V5.77043C12.6597 5.59604 12.5625 5.43493 12.4038 5.34574L10.8339 4.46113L11.4056 3.56635Z" fill="#595959"/>
<path fill-rule="evenodd" clip-rule="evenodd" d="M9.60417 1.04348C9.01876 1.04348 8.51827 1.38126 8.31338 1.86268L7.28163 1.4754C7.65007 0.609695 8.55069 0 9.60417 0C10.9849 0 12.1042 1.05116 12.1042 2.34783V2.86957C12.1042 4.16624 10.9849 5.21739 9.60417 5.21739C9.21412 5.21739 8.85795 5.136 8.52803 4.98545L9.01363 4.0469C9.19594 4.13009 9.38644 4.17391 9.60417 4.17391C10.3712 4.17391 10.9931 3.58994 10.9931 2.86957V2.34783C10.9931 1.62745 10.3712 1.04348 9.60417 1.04348Z" fill="#595959"/>
<path fill-rule="evenodd" clip-rule="evenodd" d="M1.4359 7.69885L3.96199 6.27765L4.53301 7.17279L2.0069 8.594C1.72292 8.75375 1.54861 9.04235 1.54861 9.35426V10.9565H10.4375V9.35426C10.4375 9.04308 10.2634 8.7542 9.97883 8.59379L7.4531 7.17279L8.02412 6.27765L10.5502 7.69886C11.169 8.04768 11.5486 8.67624 11.5486 9.35426V12H0.4375V9.35426C0.4375 8.67591 0.816554 8.04728 1.4359 7.69885Z" fill="#595959"/>
<path fill-rule="evenodd" clip-rule="evenodd" d="M5.99306 1.56522C4.76599 1.56522 3.77083 2.4998 3.77083 3.65217V4.69565C3.77083 5.84803 4.76599 6.78261 5.99306 6.78261C7.22012 6.78261 8.21528 5.84803 8.21528 4.69565V3.65217C8.21528 2.4998 7.22012 1.56522 5.99306 1.56522ZM2.65972 3.65217C2.65972 1.9235 4.15234 0.521739 5.99306 0.521739C7.83377 0.521739 9.32639 1.9235 9.32639 3.65217V4.69565C9.32639 6.42432 7.83377 7.82609 5.99306 7.82609C4.15234 7.82609 2.65972 6.42432 2.65972 4.69565V3.65217Z" fill="#595959"/>
</svg>
