<svg width="16" height="16" viewBox="0 0 16 16" fill="none" xmlns="http://www.w3.org/2000/svg">
<path d="M11.2031 9.03516C10.2109 9.03516 9.40625 9.83984 9.40625 10.832C9.40625 11.8242 10.2109 12.6289 11.2031 12.6289C12.1953 12.6289 13 11.8242 13 10.832C13 9.83984 12.1953 9.03516 11.2031 9.03516ZM11.2031 11.4961C10.8359 11.4961 10.5391 11.1992 10.5391 10.832C10.5391 10.4648 10.8359 10.168 11.2031 10.168C11.5703 10.168 11.8672 10.4648 11.8672 10.832C11.8672 11.1992 11.5703 11.4961 11.2031 11.4961ZM15.1875 1.28125H11.0469C11.0469 0.677734 10.5566 0.1875 9.95312 0.1875H8.39062C7.78711 0.1875 7.29688 0.677734 7.29688 1.28125H3.15625C2.81055 1.28125 2.53125 1.56055 2.53125 1.90625V5.8125H0.8125C0.466797 5.8125 0.1875 6.0918 0.1875 6.4375V15.1875C0.1875 15.5332 0.466797 15.8125 0.8125 15.8125H7.375C7.7207 15.8125 8 15.5332 8 15.1875V14.875H15.1875C15.5332 14.875 15.8125 14.5957 15.8125 14.25V1.90625C15.8125 1.56055 15.5332 1.28125 15.1875 1.28125ZM7.14062 2.53125H8.54688V1.4375H9.79688V2.53125H11.2031V3.46875H7.14062V2.53125ZM6.75 14.5625H1.4375V10.0312H6.75V14.5625ZM6.75 8.78125H1.4375V7.0625H6.75V8.78125ZM14.4062 13.4688H8V6.4375C8 6.0918 7.7207 5.8125 7.375 5.8125H3.9375V2.6875H5.89062V4.71875H12.4531V2.6875H14.4062V13.4688ZM11.75 5.96875V7.84375C11.75 7.92969 11.8203 8 11.9062 8H12.8438C12.9297 8 13 7.92969 13 7.84375V5.96875C13 5.88281 12.9297 5.8125 12.8438 5.8125H11.9062C11.8203 5.8125 11.75 5.88281 11.75 5.96875ZM9.5625 8H10.5C10.5859 8 10.6562 7.92969 10.6562 7.84375V6.75C10.6562 6.66406 10.5859 6.59375 10.5 6.59375H9.5625C9.47656 6.59375 9.40625 6.66406 9.40625 6.75V7.84375C9.40625 7.92969 9.47656 8 9.5625 8Z" fill="#595959"/>
</svg>
