<svg width="16" height="16" viewBox="0 0 16 16" fill="none" xmlns="http://www.w3.org/2000/svg">
<path d="M3.46875 12.6875H5.03125C5.11719 12.6875 5.1875 12.6172 5.1875 12.5312V3.46875C5.1875 3.38281 5.11719 3.3125 5.03125 3.3125H3.46875C3.38281 3.3125 3.3125 3.38281 3.3125 3.46875V12.5312C3.3125 12.6172 3.38281 12.6875 3.46875 12.6875ZM7.21875 7.21875H8.78125C8.86719 7.21875 8.9375 7.14844 8.9375 7.0625V3.46875C8.9375 3.38281 8.86719 3.3125 8.78125 3.3125H7.21875C7.13281 3.3125 7.0625 3.38281 7.0625 3.46875V7.0625C7.0625 7.14844 7.13281 7.21875 7.21875 7.21875ZM10.9688 8.625H12.5312C12.6172 8.625 12.6875 8.55469 12.6875 8.46875V3.46875C12.6875 3.38281 12.6172 3.3125 12.5312 3.3125H10.9688C10.8828 3.3125 10.8125 3.38281 10.8125 3.46875V8.46875C10.8125 8.55469 10.8828 8.625 10.9688 8.625ZM15.1875 0.1875H0.8125C0.466797 0.1875 0.1875 0.466797 0.1875 0.8125V15.1875C0.1875 15.5332 0.466797 15.8125 0.8125 15.8125H15.1875C15.5332 15.8125 15.8125 15.5332 15.8125 15.1875V0.8125C15.8125 0.466797 15.5332 0.1875 15.1875 0.1875ZM14.4062 14.4062H1.59375V1.59375H14.4062V14.4062Z" fill="#595959"/>
</svg>
