<svg width="16" height="18" viewBox="0 0 16 18" fill="none" xmlns="http://www.w3.org/2000/svg">
<path fill-rule="evenodd" clip-rule="evenodd" d="M2.31057 10.0951C3.45477 9.68472 5.20631 9.20857 7.19218 9.20857V10.6322C5.39849 10.6322 3.79738 11.0643 2.73852 11.444C2.2014 11.6374 1.83844 12.178 1.83844 12.7904V14.9031H6.52296V16.3268H0.5V12.7904C0.5 11.5764 1.22166 10.4869 2.31057 10.0951Z" fill="#595959"/>
<path fill-rule="evenodd" clip-rule="evenodd" d="M7.19218 2.09038C5.71407 2.09038 4.51531 3.36545 4.51531 4.93766V5.64948C4.51531 6.45509 4.82882 7.37129 5.35302 8.08291C5.87924 8.79727 6.54038 9.20857 7.19218 9.20857C7.84399 9.20857 8.50512 8.79727 9.03134 8.08291C9.55555 7.37129 9.86906 6.45509 9.86906 5.64948V4.93766C9.86906 3.36545 8.67029 2.09038 7.19218 2.09038ZM3.17687 4.93766C3.17687 2.5792 4.97487 0.666748 7.19218 0.666748C9.40949 0.666748 11.2075 2.5792 11.2075 4.93766V5.64948C11.2075 6.80919 10.7718 8.02845 10.0849 8.96095C9.4 9.89072 8.38809 10.6322 7.19218 10.6322C5.99627 10.6322 4.98437 9.89072 4.29947 8.96095C3.61255 8.02845 3.17687 6.80919 3.17687 5.64948V4.93766Z" fill="#595959"/>
<path fill-rule="evenodd" clip-rule="evenodd" d="M15.5 12.7677L11.2075 17.3334L8.92264 14.9031L9.86906 13.8965L11.2075 15.3201L14.5536 11.761L15.5 12.7677Z" fill="#595959"/>
</svg>
