<svg width="18" height="18" viewBox="0 0 18 18" fill="none" xmlns="http://www.w3.org/2000/svg">
<path fill-rule="evenodd" clip-rule="evenodd" d="M6.22157 5.52786V17.3334H4.83268V5.52786H6.22157Z" fill="#595959"/>
<path fill-rule="evenodd" clip-rule="evenodd" d="M3.44379 2.05564C3.06026 2.05564 2.74935 2.36655 2.74935 2.75008C2.74935 3.13361 3.06026 3.44453 3.44379 3.44453C3.82732 3.44453 4.13824 3.13361 4.13824 2.75008C4.13824 2.36655 3.82732 2.05564 3.44379 2.05564ZM1.36046 2.75008C1.36046 1.59949 2.2932 0.666748 3.44379 0.666748C4.59439 0.666748 5.52713 1.59949 5.52713 2.75008C5.52713 3.90067 4.59439 4.83342 3.44379 4.83342C2.2932 4.83342 1.36046 3.90067 1.36046 2.75008Z" fill="#595959"/>
<path fill-rule="evenodd" clip-rule="evenodd" d="M2.74935 6.91675C2.56517 6.91675 2.38854 6.98991 2.2583 7.12015C2.12807 7.25038 2.0549 7.42701 2.0549 7.61119V17.3334H0.666016V7.61119C0.666016 7.05866 0.885509 6.52875 1.27621 6.13805C1.66691 5.74735 2.19681 5.52786 2.74935 5.52786H11.7771V6.91675H2.74935Z" fill="#595959"/>
<path fill-rule="evenodd" clip-rule="evenodd" d="M6.91602 2.05564H17.3327V12.4723H7.61046V11.0834H15.9438V3.44453H6.91602V2.05564Z" fill="#595959"/>
<path fill-rule="evenodd" clip-rule="evenodd" d="M13.9166 16.9125L11.8333 12.0514L13.1099 11.5043L15.1932 16.3654L13.9166 16.9125Z" fill="#595959"/>
</svg>
