<svg width="16" height="18" viewBox="0 0 16 18" fill="none" xmlns="http://www.w3.org/2000/svg">
<path fill-rule="evenodd" clip-rule="evenodd" d="M3.90909 13.1667H15.5V14.9029C15.5 16.2454 14.4318 17.3334 13.1136 17.3334H2.88648C2.8864 17.3334 2.88636 17.3334 2.88636 16.639L2.88648 17.3334L2.81891 15.9558C2.81808 15.948 2.81801 15.948 2.81795 15.948L2.81645 15.9482L2.81496 15.9483L2.81368 15.9485C2.81357 15.9485 2.81525 15.9484 2.81795 15.948C2.82336 15.9473 2.83377 15.9458 2.84907 15.9432C2.87987 15.938 2.92795 15.9288 2.98733 15.9137C3.10888 15.8828 3.26291 15.8308 3.41006 15.7484C3.68664 15.5934 3.90909 15.3603 3.90909 14.9029V13.1667ZM5.04864 15.9445H13.1136C13.6787 15.9445 14.1364 15.4784 14.1364 14.9029V14.5556H5.27273V14.9029C5.27273 15.3118 5.18648 15.6564 5.04864 15.9445Z" fill="#595959"/>
<path fill-rule="evenodd" clip-rule="evenodd" d="M0.5 0.666748H8.68182V2.05564H1.86364V14.9029C1.86364 15.4784 2.32133 15.9445 2.88636 15.9445H4.59091V17.3334H2.88648C1.56833 17.3334 0.5 16.2454 0.5 14.9029V0.666748Z" fill="#595959"/>
<path fill-rule="evenodd" clip-rule="evenodd" d="M10.7273 9.78583V5.97647H9.36364V12.381L12.0909 10.5291L14.8182 12.381V5.97647H13.4545V9.78583L12.0909 8.85991L10.7273 9.78583Z" fill="#595959"/>
<path fill-rule="evenodd" clip-rule="evenodd" d="M12.0909 2.05564C10.9612 2.05564 10.0455 2.98838 10.0455 4.13897C10.0455 5.28956 10.9612 6.2223 12.0909 6.2223C13.2206 6.2223 14.1364 5.28956 14.1364 4.13897C14.1364 2.98838 13.2206 2.05564 12.0909 2.05564ZM8.68182 4.13897C8.68182 2.22131 10.2081 0.666748 12.0909 0.666748C13.9737 0.666748 15.5 2.22131 15.5 4.13897C15.5 6.05663 13.9737 7.61119 12.0909 7.61119C10.2081 7.61119 8.68182 6.05663 8.68182 4.13897Z" fill="#595959"/>
</svg>
