<svg xmlns="http://www.w3.org/2000/svg" viewBox="0 0 1787.9 269.44"><defs><style>.cls-1{fill:#034b68;}.cls-2{fill:#eaa200;}</style></defs><g id="Layer_2" data-name="Layer 2"><g id="Layer_1-2" data-name="Layer 1"><path class="cls-1" d="M69.93,268.27H0V0H69.93Z"/><path class="cls-1" d="M484.82,134q0,57.88-37.9,95.79t-95.5,37.9H117.83V0H351.42Q409,0,446.92,37.9T484.82,134Zm-69.64,0q0-29.39-17.48-46.57T350.83,69.64H187.76V197.75H350.83q29.39-.58,46.87-17.34T415.18,134Z"/><path class="cls-1" d="M885.32,269.44H837.13L588.25,99.32v169H518.32V.59h48.77l248.59,166V.59h69.64Z"/><path class="cls-1" d="M1287.57,267.68h-233q-62.58,0-98.43-40.25-32-36.15-32-90.21,0-54.94,33.2-94Q994,0,1054.56,0h233V69.64h-233q-39.66,0-56.41,29.68h223.31V169H998.15q16.74,28.8,56.41,28.8h233Z"/><path class="cls-1" d="M1787.9,77.24V201.36L1680.41,139.3a20,20,0,0,0-20,0L1445.32,263.42a20,20,0,0,1-20,0l-97.5-56.29a20,20,0,0,1-10-17.32V65.69l107.5,62.06a20,20,0,0,0,20,0L1660.41,3.63a20,20,0,0,1,20,0l97.49,56.29A20,20,0,0,1,1787.9,77.24Z"/><path class="cls-2" d="M1552.92,65.66l-107.6,62.1a20,20,0,0,1-20,0l-107.5-62.06,107.5-62.06a20,20,0,0,1,20,0Z"/><path class="cls-2" d="M1787.9,201.36l-107.49,62.06a20,20,0,0,1-20,0l-107.45-62,107.45-62.08a20,20,0,0,1,20,0Z"/></g></g></svg>