<svg width="18" height="18" viewBox="0 0 18 18" fill="none" xmlns="http://www.w3.org/2000/svg">
<path fill-rule="evenodd" clip-rule="evenodd" d="M6.5272 7.36812L12.954 0.666748L15.9676 3.80906L9.54076 10.5104L6.5272 7.36812ZM8.45804 7.36812L9.54076 8.4971L14.0367 3.80906L12.954 2.68008L8.45804 7.36812Z" fill="#064D69"/>
<path fill-rule="evenodd" clip-rule="evenodd" d="M2.03134 13.0625H11.5886V17.3334H10.2233V14.4861H3.39667V17.3334H2.03134V13.0625Z" fill="#064D69"/>
<path fill-rule="evenodd" clip-rule="evenodd" d="M0.666016 10.2151H4.07933V11.6388H0.666016V10.2151Z" fill="#064D69"/>
<path fill-rule="evenodd" clip-rule="evenodd" d="M3.14818 5.39023L5.56153 7.90669L4.5961 8.91336L2.18275 6.3969L3.14818 5.39023Z" fill="#064D69"/>
<path fill-rule="evenodd" clip-rule="evenodd" d="M0.666016 15.9098H12.9539V17.3334H0.666016V15.9098Z" fill="#064D69"/>
<path fill-rule="evenodd" clip-rule="evenodd" d="M12.2713 5.64933L17.3327 10.927L16.3673 11.9336L11.3058 6.65601L12.2713 5.64933Z" fill="#064D69"/>
</svg>
