<?xml version="1.0" standalone="no"?>
<!DOCTYPE svg PUBLIC "-//W3C//DTD SVG 20010904//EN"
 "http://www.w3.org/TR/2001/REC-SVG-20010904/DTD/svg10.dtd">
<svg version="1.0" xmlns="http://www.w3.org/2000/svg"
 width="47.000000pt" height="22.000000pt" viewBox="0 0 47.000000 22.000000"
 preserveAspectRatio="xMidYMid meet">

<g transform="translate(0.000000,22.000000) scale(0.100000,-0.100000)"
fill="#000000" stroke="none">
<path d="M0 110 c0 -16 5 -30 10 -30 6 0 10 14 10 30 0 17 -4 30 -10 30 -5 0
-10 -13 -10 -30z"/>
<path d="M30 110 c0 -30 1 -31 43 -28 37 3 42 6 42 28 0 22 -5 25 -42 28 -42
3 -43 2 -43 -28z m75 0 c0 -9 -11 -16 -27 -18 -23 -3 -28 1 -28 18 0 17 5 21
28 18 16 -2 27 -9 27 -18z"/>
<path d="M141 108 c1 -23 3 -26 6 -10 l4 22 29 -20 c39 -27 50 -25 50 10 0 17
-4 30 -10 30 -5 0 -10 -9 -10 -20 0 -19 -1 -19 -35 1 l-35 21 1 -34z"/>
<path d="M244 125 c-12 -31 4 -45 48 -44 l43 2 -40 7 c-31 6 -34 7 -12 9 35 1
35 21 0 22 -22 2 -19 3 12 9 l40 7 -43 2 c-30 1 -44 -4 -48 -14z"/>
<path d="M393 125 c-12 -8 -28 -12 -37 -9 -11 4 -16 1 -16 -10 0 -24 24 -30
57 -13 15 8 34 12 41 9 9 -3 13 2 10 14 -4 24 -28 28 -55 9z"/>
</g>
</svg>
